<svg id="visual" viewBox="0 0 900 600" width="900" height="600" xmlns="http://www.w3.org/2000/svg" xmlns:xlink="http://www.w3.org/1999/xlink" version="1.1"><rect x="0" y="0" width="900" height="600" fill="#000000"></rect><g transform="translate(442.24704848950336 225.73296852278577)"><path d="M37.3 -85.7C37.3 -64.7 18.7 -32.3 59.3 -16.2C100 0 200 0 214 8.1C228 16.2 156 32.3 129.2 72.5C102.3 112.6 120.7 176.7 106.7 216.1C92.7 255.5 46.3 270.3 5.8 260.3C-34.8 250.3 -69.7 215.7 -73.6 170.4C-77.5 125.2 -50.4 69.3 -64 39.2C-77.6 9 -131.8 4.5 -165.3 -19.3C-198.8 -43.2 -211.5 -86.3 -188.9 -100.8C-166.2 -115.2 -108.1 -100.9 -70.7 -100.3C-33.3 -99.7 -16.7 -112.9 1 -114.6C18.7 -116.3 37.3 -106.7 37.3 -85.7" fill="#4FACF7"></path></g></svg>